<svg id="svg" version="1.1" xmlns="http://www.w3.org/2000/svg" xmlns:xlink="http://www.w3.org/1999/xlink" width="400" height="403.3755274261604" viewBox="0, 0, 400,403.3755274261604"><g id="svgg"><path id="path0" d="M79.835 5.993 C 79.195 6.859,78.516 7.471,78.326 7.354 C 78.136 7.237,78.030 7.318,78.090 7.536 C 78.218 7.996,71.161 14.951,70.670 14.849 C 70.489 14.811,70.438 14.938,70.558 15.132 C 70.813 15.545,69.333 16.962,68.243 17.350 C 67.826 17.498,67.563 17.696,67.657 17.790 C 67.921 18.054,61.970 24.214,61.560 24.100 C 61.362 24.045,61.242 24.135,61.293 24.300 C 61.413 24.689,54.295 31.801,53.900 31.687 C 53.735 31.639,53.636 31.735,53.680 31.900 C 53.799 32.347,45.554 40.618,45.116 40.490 C 44.910 40.430,44.831 40.527,44.942 40.706 C 45.053 40.885,44.661 41.357,44.072 41.754 C 43.482 42.151,42.550 43.084,42.000 43.827 C 41.450 44.570,40.775 45.183,40.500 45.189 C 40.225 45.195,40.045 45.425,40.100 45.700 C 40.155 45.975,39.975 46.155,39.700 46.100 C 39.425 46.045,39.245 46.153,39.300 46.339 C 39.420 46.747,32.371 53.733,31.800 53.773 C 31.580 53.788,31.400 54.010,31.400 54.267 C 31.400 54.825,30.876 55.400,30.367 55.400 C 30.165 55.400,29.976 55.512,29.946 55.649 C 29.824 56.215,23.056 62.991,22.713 62.890 C 22.508 62.830,22.423 62.920,22.523 63.090 C 22.623 63.261,21.577 64.390,20.199 65.600 C 18.821 66.810,17.491 68.215,17.245 68.723 C 16.982 69.263,16.606 69.527,16.336 69.361 C 16.070 69.196,15.985 69.252,16.134 69.493 C 16.448 70.001,15.445 70.912,15.030 70.497 C 14.867 70.333,14.779 70.380,14.836 70.600 C 14.957 71.077,5.451 80.800,4.862 80.800 C 3.957 80.800,3.961 82.442,4.869 83.906 C 5.378 84.728,5.746 85.551,5.686 85.734 C 5.626 85.918,5.945 86.165,6.395 86.283 C 6.845 86.400,7.189 86.700,7.159 86.948 C 7.045 87.908,7.215 88.438,7.568 88.220 C 7.771 88.094,8.536 89.029,9.268 90.296 C 10.001 91.563,10.810 92.960,11.067 93.400 C 11.984 94.973,14.800 100.885,14.800 101.239 C 14.800 101.438,14.961 101.600,15.157 101.600 C 15.691 101.600,18.861 109.139,20.625 114.600 C 21.477 117.240,22.321 119.504,22.501 119.632 C 22.680 119.760,22.712 120.165,22.571 120.532 C 22.430 120.899,22.497 121.200,22.720 121.200 C 22.943 121.200,23.024 121.588,22.900 122.063 C 22.764 122.582,22.832 122.827,23.072 122.679 C 23.458 122.440,23.804 123.581,25.048 129.200 C 26.781 137.028,27.747 143.343,28.475 151.600 C 29.229 160.152,29.276 161.306,28.886 161.554 C 28.673 161.689,28.395 164.140,28.268 167.000 C 27.946 174.229,26.431 184.319,24.755 190.400 C 24.300 192.050,23.834 193.895,23.719 194.500 C 23.603 195.105,23.330 195.600,23.112 195.600 C 22.893 195.600,22.823 195.883,22.956 196.230 C 23.089 196.576,22.913 197.144,22.564 197.493 C 22.204 197.854,22.008 198.530,22.110 199.063 C 22.208 199.578,22.123 200.000,21.921 200.000 C 21.718 200.000,21.676 200.200,21.828 200.445 C 21.979 200.689,21.929 201.004,21.718 201.145 C 21.507 201.285,20.285 204.640,19.004 208.600 C 17.723 212.560,16.547 215.980,16.390 216.200 C 16.233 216.420,15.983 217.275,15.834 218.100 C 15.685 218.925,15.381 219.600,15.158 219.600 C 14.935 219.600,14.876 219.800,15.028 220.045 C 15.179 220.289,15.077 220.629,14.801 220.799 C 14.526 220.970,14.300 221.579,14.300 222.155 C 14.300 222.730,14.123 223.200,13.907 223.200 C 13.691 223.200,13.618 223.470,13.745 223.800 C 13.871 224.130,13.801 224.400,13.587 224.400 C 13.374 224.400,13.200 224.612,13.200 224.871 C 13.200 225.130,12.663 227.065,12.008 229.171 C 10.589 233.726,8.558 242.160,8.173 245.092 C 8.010 246.340,7.736 247.084,7.496 246.936 C 7.244 246.780,7.162 247.159,7.277 247.943 C 7.378 248.634,7.289 249.200,7.078 249.200 C 6.862 249.200,6.788 249.897,6.909 250.800 C 7.027 251.680,6.955 252.400,6.749 252.400 C 6.543 252.400,6.386 252.985,6.399 253.700 C 6.412 254.415,6.246 256.080,6.030 257.400 C 5.814 258.720,5.637 260.700,5.637 261.800 C 5.636 262.900,5.616 264.250,5.593 264.800 C 5.225 273.359,5.212 276.572,5.543 276.903 C 5.765 277.125,5.838 278.530,5.712 280.189 C 5.568 282.091,5.644 283.180,5.933 283.359 C 6.182 283.512,6.275 284.126,6.147 284.767 C 6.018 285.409,6.111 286.022,6.361 286.176 C 6.608 286.329,6.695 286.879,6.558 287.425 C 6.423 287.961,6.477 288.400,6.676 288.400 C 6.876 288.400,6.966 289.030,6.876 289.800 C 6.786 290.570,6.887 291.200,7.101 291.200 C 7.314 291.200,7.398 291.677,7.287 292.259 C 7.157 292.937,7.235 293.226,7.502 293.060 C 7.758 292.902,8.073 293.617,8.314 294.901 C 9.223 299.758,12.796 310.249,13.760 310.894 C 14.002 311.056,14.059 311.191,13.886 311.194 C 13.713 311.197,13.795 311.605,14.067 312.100 C 14.340 312.595,14.571 313.231,14.582 313.513 C 14.592 313.796,14.795 314.156,15.032 314.313 C 15.270 314.471,16.133 315.950,16.950 317.600 C 18.816 321.369,20.876 324.800,21.272 324.800 C 21.439 324.800,21.471 325.070,21.345 325.400 C 21.195 325.790,21.355 326.000,21.800 326.000 C 22.245 326.000,22.405 326.210,22.255 326.600 C 22.112 326.974,22.258 327.200,22.646 327.200 C 22.987 327.200,23.200 327.401,23.117 327.648 C 23.035 327.894,23.454 328.615,24.047 329.250 C 24.640 329.885,25.786 331.401,26.595 332.618 C 27.403 333.836,29.400 336.176,31.032 337.819 C 32.664 339.462,34.000 340.996,34.000 341.227 C 34.000 341.458,34.167 341.544,34.371 341.418 C 34.575 341.292,34.845 341.506,34.971 341.894 C 35.096 342.282,35.784 342.999,36.499 343.488 C 37.215 343.976,38.944 345.440,40.343 346.741 C 43.026 349.238,42.976 349.200,43.600 349.200 C 43.820 349.200,44.000 349.470,44.000 349.800 C 44.000 350.133,44.356 350.400,44.800 350.400 C 45.244 350.400,45.600 350.667,45.600 351.000 C 45.600 351.330,45.861 351.600,46.179 351.600 C 46.498 351.600,47.203 352.011,47.745 352.514 C 48.287 353.017,49.242 353.692,49.866 354.014 C 50.490 354.336,51.238 354.825,51.529 355.100 C 51.819 355.375,52.314 355.600,52.629 355.600 C 52.943 355.600,53.200 355.780,53.200 356.000 C 53.200 356.220,53.470 356.400,53.800 356.400 C 54.130 356.400,54.400 356.591,54.400 356.824 C 54.400 357.057,54.580 357.136,54.800 357.000 C 55.020 356.864,55.200 356.973,55.200 357.243 C 55.200 357.513,55.309 357.624,55.443 357.491 C 55.576 357.357,56.053 357.591,56.503 358.010 C 56.953 358.429,57.461 358.686,57.633 358.580 C 57.804 358.474,58.051 358.559,58.180 358.768 C 58.506 359.296,62.692 361.220,67.000 362.823 C 68.980 363.560,70.660 364.307,70.734 364.484 C 70.808 364.661,71.033 364.703,71.234 364.579 C 71.435 364.455,71.600 364.563,71.600 364.819 C 71.600 365.076,71.870 365.182,72.200 365.055 C 72.530 364.929,72.800 364.978,72.800 365.164 C 72.800 365.572,76.016 366.437,76.476 366.153 C 76.654 366.043,76.800 366.113,76.800 366.309 C 76.800 367.092,88.395 369.493,96.600 370.409 C 98.580 370.630,110.081 370.975,122.158 371.176 C 134.235 371.377,144.225 371.702,144.358 371.900 C 144.728 372.448,146.000 372.826,146.000 372.387 C 146.000 372.174,146.360 372.000,146.800 372.000 C 147.240 372.000,147.600 372.204,147.600 372.453 C 147.600 372.750,148.149 372.832,149.200 372.691 C 150.080 372.573,150.888 372.618,150.995 372.792 C 151.310 373.301,153.599 373.511,153.606 373.031 C 153.609 372.794,153.769 372.848,153.961 373.151 C 154.153 373.454,154.498 373.586,154.728 373.445 C 154.957 373.303,155.251 373.359,155.382 373.570 C 155.512 373.781,156.469 374.079,157.509 374.231 C 158.549 374.384,159.850 374.692,160.400 374.916 C 160.950 375.139,161.760 375.384,162.200 375.460 C 164.517 375.860,172.575 379.389,173.685 380.491 C 174.068 380.871,174.656 381.077,174.991 380.948 C 175.326 380.820,175.600 380.885,175.600 381.093 C 175.600 381.426,176.593 382.026,177.800 382.423 C 178.020 382.496,178.520 382.854,178.912 383.219 C 179.304 383.584,180.609 384.364,181.812 384.953 C 183.015 385.543,184.000 386.180,184.000 386.369 C 184.000 386.558,184.457 386.828,185.016 386.968 C 185.575 387.109,185.925 387.398,185.793 387.612 C 185.661 387.825,185.743 388.000,185.976 388.000 C 186.651 388.000,186.917 388.147,187.906 389.063 C 188.419 389.538,189.440 390.212,190.175 390.562 C 190.911 390.911,191.618 391.469,191.745 391.802 C 191.873 392.135,192.118 392.364,192.289 392.310 C 192.818 392.144,197.177 394.971,197.189 395.487 C 197.195 395.763,197.471 395.871,197.824 395.735 C 198.233 395.579,198.519 395.770,198.656 396.291 C 198.979 397.529,201.490 398.165,202.113 397.168 C 202.377 396.745,202.726 396.400,202.889 396.400 C 203.052 396.400,204.031 395.590,205.065 394.600 C 206.098 393.610,207.136 392.798,207.372 392.795 C 207.607 392.792,208.573 392.072,209.517 391.195 C 210.462 390.318,211.401 389.600,211.603 389.600 C 211.806 389.600,212.167 389.235,212.406 388.789 C 212.645 388.343,213.002 388.078,213.200 388.200 C 213.398 388.322,213.755 388.057,213.994 387.611 C 214.233 387.165,214.692 386.800,215.014 386.800 C 215.336 386.800,215.600 386.614,215.600 386.387 C 215.600 386.160,215.922 385.845,216.316 385.687 C 216.710 385.529,218.447 384.500,220.177 383.400 C 221.907 382.300,223.464 381.442,223.638 381.492 C 223.812 381.543,224.459 381.088,225.077 380.480 C 226.031 379.542,230.526 377.200,231.372 377.200 C 231.522 377.200,232.415 376.849,233.357 376.420 C 234.299 375.990,236.584 375.259,238.435 374.794 C 240.286 374.330,242.070 373.842,242.400 373.711 C 242.730 373.579,243.990 373.401,245.200 373.314 C 246.410 373.227,247.552 373.005,247.737 372.821 C 247.922 372.637,248.777 372.580,249.637 372.696 C 250.715 372.840,251.200 372.754,251.200 372.418 C 251.200 372.069,251.662 372.008,252.814 372.202 C 253.860 372.379,254.632 372.306,255.008 371.993 C 255.436 371.638,260.508 371.468,274.294 371.347 C 296.558 371.151,306.351 370.400,312.600 368.412 C 313.260 368.202,314.250 367.961,314.800 367.878 C 315.350 367.794,316.307 367.517,316.926 367.263 C 317.545 367.008,318.360 366.800,318.737 366.800 C 319.114 366.800,319.798 366.536,320.258 366.214 C 320.719 365.892,321.209 365.742,321.347 365.881 C 321.486 366.020,321.600 365.929,321.600 365.679 C 321.600 365.429,321.870 365.329,322.200 365.455 C 322.530 365.582,322.800 365.492,322.800 365.255 C 322.800 365.019,323.070 364.929,323.400 365.055 C 323.730 365.182,324.000 365.067,324.000 364.800 C 324.000 364.533,324.270 364.418,324.600 364.545 C 324.930 364.671,325.200 364.644,325.200 364.485 C 325.200 364.200,326.302 363.648,328.520 362.822 C 329.817 362.339,333.612 360.627,335.500 359.674 C 336.215 359.313,336.800 358.868,336.800 358.685 C 336.800 358.502,336.968 358.456,337.172 358.583 C 337.377 358.709,337.658 358.630,337.796 358.407 C 337.934 358.183,338.377 358.000,338.781 358.000 C 339.184 358.000,339.622 357.719,339.754 357.375 C 339.886 357.031,340.160 356.852,340.363 356.977 C 340.566 357.102,340.792 357.054,340.866 356.869 C 341.034 356.450,345.486 353.600,345.974 353.600 C 346.172 353.600,346.393 353.458,346.467 353.285 C 346.540 353.112,347.493 352.452,348.585 351.819 C 349.676 351.185,350.981 350.255,351.485 349.752 C 351.988 349.248,352.400 348.958,352.400 349.107 C 352.400 349.256,352.680 348.978,353.023 348.489 C 353.365 348.000,353.823 347.600,354.040 347.600 C 354.502 347.600,358.614 344.264,361.200 341.791 C 367.347 335.912,373.185 329.818,374.219 328.200 C 374.641 327.540,375.307 326.763,375.700 326.473 C 376.092 326.183,376.315 325.787,376.195 325.593 C 376.076 325.399,376.341 325.046,376.785 324.808 C 377.229 324.571,377.549 324.243,377.496 324.080 C 377.443 323.917,377.895 323.250,378.500 322.596 C 379.105 321.943,379.600 321.181,379.600 320.904 C 379.600 320.627,379.750 320.400,379.932 320.400 C 380.115 320.400,380.520 319.907,380.832 319.305 C 381.145 318.703,382.075 317.086,382.900 315.712 C 383.725 314.338,384.400 313.075,384.400 312.903 C 384.400 312.732,384.760 312.368,385.200 312.093 C 385.652 311.810,386.000 311.160,386.000 310.597 C 386.000 310.048,386.138 309.600,386.306 309.600 C 386.474 309.600,387.029 308.655,387.540 307.500 C 388.051 306.345,388.715 304.860,389.016 304.200 C 389.317 303.540,390.145 301.290,390.856 299.200 C 391.566 297.110,392.318 295.285,392.525 295.145 C 392.733 295.004,392.779 294.689,392.628 294.445 C 392.476 294.200,392.509 294.000,392.699 294.000 C 393.196 294.000,394.689 287.040,395.444 281.200 C 396.381 273.954,395.610 254.036,394.205 249.200 C 394.109 248.870,393.914 247.700,393.772 246.600 C 393.630 245.500,393.403 244.420,393.267 244.200 C 393.131 243.980,393.072 243.485,393.135 243.100 C 393.198 242.715,393.047 242.400,392.798 242.400 C 392.528 242.400,392.448 242.078,392.600 241.600 C 392.740 241.160,392.692 240.800,392.494 240.800 C 392.295 240.800,392.123 240.575,392.110 240.300 C 392.052 239.086,389.876 231.023,387.980 225.000 C 387.287 222.800,386.537 220.325,386.312 219.500 C 386.087 218.675,385.750 218.000,385.564 218.000 C 385.378 218.000,385.329 217.730,385.455 217.400 C 385.582 217.070,385.503 216.800,385.280 216.800 C 385.057 216.800,383.934 213.875,382.784 210.300 C 381.634 206.725,380.277 202.500,379.767 200.911 C 379.257 199.321,378.721 197.386,378.576 196.611 C 378.430 195.835,378.157 195.200,377.968 195.200 C 377.779 195.200,377.729 194.930,377.855 194.600 C 377.990 194.249,377.860 193.997,377.543 193.994 C 377.118 193.989,377.128 193.907,377.589 193.615 C 378.093 193.296,378.079 193.205,377.489 192.979 C 377.110 192.833,376.800 192.543,376.800 192.334 C 376.800 192.124,376.978 192.063,377.195 192.197 C 377.654 192.480,377.226 191.114,376.755 190.792 C 376.588 190.678,376.001 188.248,375.450 185.392 C 372.057 167.817,372.099 150.942,375.580 133.800 C 376.027 131.600,376.394 129.654,376.396 129.476 C 376.398 129.298,376.580 129.264,376.800 129.400 C 377.185 129.638,377.408 128.278,377.255 126.629 C 377.216 126.204,377.334 125.754,377.517 125.629 C 377.700 125.503,378.175 124.140,378.572 122.600 C 379.594 118.643,382.443 109.874,382.855 109.420 C 383.045 109.211,383.200 108.807,383.200 108.523 C 383.200 107.764,384.539 104.800,384.882 104.800 C 385.043 104.800,385.080 104.553,384.964 104.252 C 384.849 103.950,385.034 103.596,385.377 103.464 C 385.720 103.333,386.000 102.932,386.000 102.573 C 386.000 101.631,391.936 90.267,392.632 89.878 C 392.953 89.698,393.112 89.382,392.985 89.175 C 392.857 88.969,392.943 88.800,393.176 88.800 C 393.409 88.800,393.600 88.524,393.600 88.187 C 393.600 87.851,393.863 87.474,394.185 87.350 C 394.506 87.227,394.887 86.738,395.031 86.263 C 395.175 85.788,395.722 84.827,396.246 84.127 C 396.771 83.426,397.200 82.658,397.200 82.418 C 397.200 81.371,319.647 4.461,319.170 5.036 C 318.913 5.346,318.460 5.600,318.165 5.600 C 317.870 5.600,317.433 5.965,317.194 6.411 C 316.955 6.857,316.598 7.122,316.400 7.000 C 316.202 6.878,315.845 7.143,315.606 7.589 C 315.367 8.035,315.010 8.400,314.812 8.400 C 314.297 8.400,307.827 12.769,307.666 13.225 C 307.592 13.434,307.367 13.503,307.166 13.379 C 306.965 13.255,306.800 13.363,306.800 13.619 C 306.800 13.876,306.530 13.982,306.200 13.855 C 305.823 13.711,305.600 13.859,305.600 14.255 C 305.600 14.635,305.374 14.799,305.033 14.668 C 304.721 14.548,304.360 14.728,304.230 15.067 C 304.093 15.424,303.734 15.583,303.376 15.446 C 303.036 15.316,302.844 15.347,302.948 15.516 C 303.149 15.840,297.038 18.873,293.000 20.453 C 291.680 20.970,290.490 21.545,290.355 21.730 C 290.221 21.916,289.996 22.053,289.855 22.034 C 288.798 21.893,287.969 22.088,287.458 22.599 C 287.111 22.947,286.568 23.086,286.164 22.931 C 285.723 22.762,285.565 22.819,285.731 23.089 C 285.888 23.342,285.472 23.600,284.697 23.729 C 283.984 23.848,282.050 24.315,280.400 24.768 C 267.606 28.275,251.420 28.347,237.512 24.959 C 235.153 24.384,232.831 23.574,232.351 23.157 C 231.389 22.323,231.019 22.184,231.400 22.800 C 231.536 23.020,231.457 23.200,231.224 23.200 C 230.991 23.200,230.800 23.034,230.800 22.832 C 230.800 22.629,230.215 22.338,229.500 22.186 C 228.785 22.033,227.975 21.726,227.700 21.505 C 227.425 21.283,227.200 21.226,227.200 21.378 C 227.200 21.530,226.677 21.282,226.038 20.827 C 225.399 20.372,224.669 20.000,224.415 20.000 C 223.483 20.000,215.995 15.900,214.735 14.700 C 214.331 14.315,213.730 14.000,213.400 14.000 C 213.070 14.000,212.800 13.820,212.800 13.600 C 212.800 13.380,212.575 13.198,212.300 13.196 C 212.025 13.194,210.902 12.400,209.805 11.431 C 208.708 10.462,207.692 9.743,207.547 9.833 C 207.402 9.923,206.294 9.007,205.085 7.798 C 203.876 6.589,202.696 5.600,202.463 5.600 C 202.230 5.600,201.878 5.311,201.681 4.959 C 201.264 4.214,199.600 4.964,199.600 5.896 C 199.600 6.173,199.242 6.400,198.803 6.400 C 198.365 6.400,197.780 6.765,197.503 7.210 C 196.928 8.137,192.407 11.420,192.387 10.926 C 192.380 10.746,192.155 10.870,191.887 11.201 C 191.619 11.531,190.705 12.161,189.856 12.601 C 189.007 13.040,188.223 13.624,188.114 13.898 C 188.005 14.171,187.754 14.295,187.555 14.172 C 187.357 14.050,187.087 14.230,186.955 14.572 C 186.824 14.915,186.574 15.107,186.400 15.000 C 186.226 14.893,185.981 15.074,185.854 15.402 C 185.728 15.731,185.274 16.000,184.846 16.000 C 184.417 16.000,184.007 16.148,183.933 16.330 C 183.775 16.722,178.872 19.069,174.973 20.618 C 173.448 21.225,172.143 21.864,172.074 22.038 C 172.005 22.212,171.690 22.256,171.374 22.135 C 171.058 22.014,170.800 22.108,170.800 22.345 C 170.800 22.581,170.530 22.671,170.200 22.545 C 169.849 22.410,169.597 22.540,169.594 22.857 C 169.589 23.276,169.499 23.263,169.200 22.800 C 168.859 22.273,168.812 22.276,168.806 22.826 C 168.799 23.566,161.165 25.598,154.400 26.662 C 147.813 27.698,134.448 27.590,128.000 26.449 C 122.018 25.391,115.100 23.638,114.745 23.091 C 114.604 22.875,114.289 22.821,114.045 22.972 C 113.800 23.124,113.600 23.046,113.600 22.800 C 113.600 22.554,113.420 22.464,113.200 22.600 C 112.980 22.736,112.800 22.687,112.800 22.491 C 112.800 22.294,111.720 21.789,110.400 21.367 C 109.080 20.945,108.000 20.455,108.000 20.276 C 108.000 20.098,107.865 20.036,107.700 20.137 C 107.313 20.376,99.430 16.775,98.391 15.885 C 97.956 15.513,97.595 15.341,97.588 15.504 C 97.581 15.667,97.392 15.485,97.168 15.100 C 96.944 14.715,96.418 14.400,96.000 14.400 C 95.582 14.400,95.096 14.152,94.920 13.848 C 94.744 13.545,93.970 12.956,93.200 12.539 C 92.430 12.122,90.735 11.066,89.434 10.191 C 88.132 9.316,86.692 8.378,86.234 8.106 C 85.703 7.791,85.610 7.610,85.976 7.606 C 86.387 7.602,86.330 7.436,85.776 7.028 C 85.349 6.713,84.942 6.617,84.872 6.813 C 84.801 7.009,84.120 6.547,83.358 5.785 C 81.612 4.038,81.266 4.059,79.835 5.993 M202.842 19.725 C 214.298 28.358,226.352 33.539,243.200 37.071 C 248.219 38.123,268.042 38.121,273.800 37.069 C 289.098 34.272,303.852 28.454,315.547 20.608 C 317.029 19.613,318.412 18.800,318.622 18.800 C 320.012 18.800,383.769 83.637,383.226 84.498 C 378.835 91.458,373.036 104.232,370.196 113.200 C 369.603 115.070,368.885 117.320,368.600 118.200 L 368.081 119.800 200.879 119.900 L 33.678 120.001 32.816 117.100 C 30.057 107.819,24.990 96.099,20.061 87.600 L 17.625 83.400 50.014 51.000 C 82.206 18.796,82.409 18.604,83.383 19.200 C 83.923 19.530,86.037 20.868,88.082 22.174 C 112.222 37.589,141.606 42.086,168.174 34.433 C 178.832 31.363,190.586 25.721,198.800 19.732 C 201.003 18.126,200.722 18.127,202.842 19.725 M91.706 59.017 C 77.099 62.950,72.557 84.787,84.003 96.052 C 94.195 106.084,114.000 100.052,114.000 86.916 C 114.000 86.195,107.637 86.180,107.433 86.900 C 107.355 87.175,107.072 88.210,106.804 89.200 C 104.975 95.959,93.818 97.497,88.320 91.748 C 83.422 86.626,83.025 74.550,87.557 68.553 C 92.922 61.455,105.532 63.027,107.182 71.000 L 107.431 72.200 110.715 72.316 C 114.497 72.450,114.402 72.586,113.213 68.737 C 110.859 61.115,100.798 56.568,91.706 59.017 M134.045 59.032 C 124.648 61.559,119.210 69.819,119.713 80.800 C 120.949 107.766,157.592 108.138,159.071 81.200 C 159.911 65.892,147.947 55.294,134.045 59.032 M220.697 59.025 C 203.207 63.263,200.798 91.500,217.270 99.196 C 228.704 104.539,241.878 98.450,245.006 86.376 C 249.415 69.363,236.765 55.131,220.697 59.025 M166.400 79.800 L 166.400 100.400 169.600 100.400 L 172.800 100.400 172.800 91.000 L 172.800 81.600 182.600 81.600 L 192.400 81.600 192.400 91.000 L 192.400 100.400 195.800 100.400 L 199.200 100.400 199.200 79.800 L 199.200 59.200 195.800 59.200 L 192.400 59.200 192.400 67.400 L 192.400 75.600 182.600 75.600 L 172.800 75.600 172.800 67.400 L 172.800 59.200 169.600 59.200 L 166.400 59.200 166.400 79.800 M252.800 79.774 L 252.800 100.400 256.200 100.400 L 259.600 100.400 259.600 91.800 L 259.600 83.200 264.700 83.202 C 273.393 83.206,275.154 84.364,277.773 91.802 C 278.625 94.221,279.668 97.145,280.090 98.300 L 280.857 100.400 284.211 100.400 L 287.564 100.400 285.553 94.500 C 283.153 87.461,282.021 85.090,280.126 83.135 L 278.705 81.669 279.947 81.027 C 288.242 76.738,288.149 64.170,279.795 60.320 C 277.870 59.432,277.359 59.396,265.300 59.274 L 252.800 59.149 252.800 79.774 M291.200 61.990 L 291.200 64.781 297.900 64.890 L 304.600 65.000 304.704 82.700 L 304.808 100.400 308.000 100.400 L 311.192 100.400 311.296 82.700 L 311.400 65.000 317.900 64.890 L 324.400 64.780 324.400 61.990 L 324.400 59.200 307.800 59.200 L 291.200 59.200 291.200 61.990 M144.691 65.188 C 154.911 69.601,155.202 88.837,145.128 94.049 C 138.199 97.634,128.917 93.407,127.012 85.800 C 123.425 71.474,133.107 60.185,144.691 65.188 M231.254 65.129 C 242.125 70.392,241.621 90.783,230.526 94.563 C 219.974 98.159,211.311 89.131,213.161 76.467 C 214.578 66.763,223.317 61.287,231.254 65.129 M276.174 65.416 C 278.599 66.624,279.401 68.004,279.393 70.958 C 279.380 76.239,277.995 76.957,267.500 77.130 L 259.600 77.260 259.600 70.782 L 259.600 64.304 267.100 64.468 C 273.535 64.609,274.824 64.743,276.174 65.416 M365.200 131.417 C 365.200 131.756,364.941 133.331,364.626 134.917 C 359.370 161.290,362.077 184.113,374.596 219.000 C 386.569 252.367,388.434 276.249,380.646 296.499 C 370.666 322.448,344.551 346.674,316.400 356.099 C 304.281 360.156,302.125 360.412,276.800 360.805 C 236.952 361.424,228.026 363.846,206.507 379.883 L 200.414 384.424 195.107 380.861 C 169.638 363.759,161.128 361.397,122.800 360.798 C 98.650 360.420,94.320 360.023,83.374 357.184 C 43.701 346.895,16.000 311.722,16.000 271.638 C 16.000 255.784,18.898 241.255,26.182 220.600 C 39.961 181.524,42.471 160.086,36.567 131.900 L 36.336 130.800 200.768 130.800 C 348.661 130.800,365.200 130.862,365.200 131.417 M149.600 162.008 C 129.242 164.819,113.878 177.253,107.797 195.840 C 106.032 201.234,105.933 201.993,106.937 202.402 C 108.333 202.970,130.040 207.693,130.257 207.476 C 130.366 207.367,130.729 206.232,131.063 204.953 C 134.287 192.608,143.384 186.400,158.252 186.400 C 178.138 186.400,191.410 200.287,184.865 214.247 C 182.356 219.599,180.451 221.043,163.800 230.216 C 126.752 250.625,107.445 278.696,106.316 313.800 L 106.200 317.400 158.500 317.501 L 210.800 317.603 210.800 305.201 L 210.800 292.800 173.200 292.800 C 140.145 292.800,135.600 292.728,135.600 292.204 C 135.600 291.186,139.509 284.016,142.580 279.400 C 150.348 267.723,158.156 261.209,175.082 252.286 C 178.557 250.455,183.020 247.871,185.000 246.545 C 186.980 245.220,189.752 243.525,191.160 242.780 C 199.986 238.107,208.241 225.788,210.246 214.297 C 215.659 183.270,185.284 157.081,149.600 162.008 M257.865 167.013 C 254.336 170.862,250.127 173.103,245.800 173.436 C 244.260 173.554,242.592 173.734,242.093 173.835 L 241.186 174.019 241.293 183.509 L 241.400 193.000 248.299 193.109 L 255.197 193.219 255.299 255.309 L 255.400 317.400 267.701 317.506 L 280.002 317.612 279.901 240.906 L 279.800 164.200 270.200 164.115 L 260.600 164.029 257.865 167.013 " stroke="none" fill="#0a0b0a" fill-rule="evenodd"></path><path id="path1" d="M318.400 5.000 C 318.122 5.335,318.079 5.600,318.302 5.600 C 318.522 5.600,318.926 5.330,319.200 5.000 C 319.478 4.665,319.521 4.400,319.298 4.400 C 319.078 4.400,318.674 4.670,318.400 5.000 M320.604 5.183 C 321.739 6.585,393.680 78.525,395.713 80.291 C 398.582 82.783,394.105 78.263,356.480 40.680 C 319.853 4.093,319.194 3.440,320.604 5.183 M74.454 11.012 C 71.074 14.415,68.422 17.200,68.562 17.200 C 68.810 17.200,78.057 8.030,79.970 5.886 C 82.286 3.292,80.162 5.265,74.454 11.012 M210.909 12.400 C 211.469 12.840,212.078 13.196,212.263 13.191 C 212.700 13.180,210.713 11.621,210.246 11.609 C 210.051 11.604,210.350 11.960,210.909 12.400 M306.412 13.184 C 306.088 13.389,305.978 13.701,306.166 13.878 C 306.355 14.055,306.590 13.974,306.689 13.698 C 306.788 13.421,307.033 13.297,307.234 13.421 C 307.435 13.545,307.600 13.457,307.600 13.224 C 307.600 12.705,307.191 12.692,306.412 13.184 M303.429 15.029 C 302.571 15.886,302.639 16.114,303.600 15.600 C 304.040 15.365,304.400 14.998,304.400 14.786 C 304.400 14.242,304.153 14.304,303.429 15.029 M298.400 17.800 C 297.850 18.114,297.580 18.372,297.800 18.372 C 298.020 18.372,298.650 18.114,299.200 17.800 C 299.750 17.486,300.020 17.228,299.800 17.228 C 299.580 17.228,298.950 17.486,298.400 17.800 M55.200 30.306 C 48.490 37.067,43.445 42.240,43.988 41.800 C 45.496 40.580,67.963 17.999,67.663 18.006 C 67.518 18.009,61.910 23.544,55.200 30.306 M198.800 19.732 C 174.895 37.160,141.530 42.726,113.600 33.944 C 104.601 31.115,95.535 26.933,88.082 22.174 C 86.037 20.868,83.923 19.530,83.383 19.200 C 82.409 18.604,82.206 18.796,50.014 51.000 L 17.625 83.400 20.061 87.600 C 24.990 96.099,30.057 107.819,32.816 117.100 L 33.678 120.001 200.879 119.900 L 368.081 119.800 368.600 118.200 C 368.885 117.320,369.603 115.070,370.196 113.200 C 373.036 104.232,378.835 91.458,383.226 84.498 C 383.769 83.637,320.012 18.800,318.622 18.800 C 318.412 18.800,317.029 19.613,315.547 20.608 C 303.852 28.454,289.098 34.272,273.800 37.069 C 268.042 38.121,248.219 38.123,243.200 37.071 C 226.352 33.539,214.298 28.358,202.842 19.725 C 200.722 18.127,201.003 18.126,198.800 19.732 M139.100 27.496 C 140.475 27.574,142.725 27.574,144.100 27.496 C 145.475 27.418,144.350 27.354,141.600 27.354 C 138.850 27.354,137.725 27.418,139.100 27.496 M256.316 27.497 C 257.699 27.575,259.859 27.574,261.116 27.495 C 262.372 27.416,261.240 27.352,258.600 27.353 C 255.960 27.353,254.932 27.418,256.316 27.497 M41.400 44.000 C 40.768 44.660,40.419 45.190,40.625 45.178 C 40.978 45.157,43.039 42.800,42.705 42.800 C 42.620 42.800,42.032 43.340,41.400 44.000 M35.043 50.426 C 32.427 53.062,30.357 55.278,30.443 55.348 C 30.529 55.419,32.819 53.254,35.530 50.538 C 38.242 47.822,40.312 45.607,40.130 45.616 C 39.949 45.624,37.659 47.789,35.043 50.426 M23.600 61.891 C 20.410 65.130,18.880 66.807,20.200 65.618 C 22.830 63.248,29.920 55.992,29.600 55.998 C 29.490 56.001,26.790 58.652,23.600 61.891 M101.947 58.981 C 107.606 60.487,111.782 64.104,113.213 68.737 C 114.402 72.586,114.497 72.450,110.715 72.316 L 107.431 72.200 107.182 71.000 C 105.532 63.027,92.922 61.455,87.557 68.553 C 83.025 74.550,83.422 86.626,88.320 91.748 C 93.818 97.497,104.975 95.959,106.804 89.200 C 107.072 88.210,107.355 87.175,107.433 86.900 C 107.637 86.180,114.000 86.195,114.000 86.916 C 114.000 102.851,87.829 106.309,80.284 91.371 C 71.527 74.035,84.671 54.383,101.947 58.981 M144.514 59.029 C 155.932 61.988,162.035 74.894,158.037 87.629 C 152.437 105.469,126.466 105.516,120.768 87.696 C 115.262 70.480,128.240 54.813,144.514 59.029 M231.165 59.017 C 248.727 63.156,251.240 91.482,234.730 99.196 C 223.682 104.358,210.289 98.521,207.191 87.193 C 202.382 69.617,214.703 55.136,231.165 59.017 M172.800 67.400 L 172.800 75.600 182.600 75.600 L 192.400 75.600 192.400 67.400 L 192.400 59.200 195.800 59.200 L 199.200 59.200 199.200 79.800 L 199.200 100.400 195.800 100.400 L 192.400 100.400 192.400 91.000 L 192.400 81.600 182.600 81.600 L 172.800 81.600 172.800 91.000 L 172.800 100.400 169.600 100.400 L 166.400 100.400 166.400 79.800 L 166.400 59.200 169.600 59.200 L 172.800 59.200 172.800 67.400 M279.795 60.320 C 288.149 64.170,288.242 76.738,279.947 81.027 L 278.705 81.669 280.126 83.135 C 282.021 85.090,283.153 87.461,285.553 94.500 L 287.564 100.400 284.211 100.400 L 280.857 100.400 280.090 98.300 C 279.668 97.145,278.625 94.221,277.773 91.802 C 275.154 84.364,273.393 83.206,264.700 83.202 L 259.600 83.200 259.600 91.800 L 259.600 100.400 256.200 100.400 L 252.800 100.400 252.800 79.774 L 252.800 59.149 265.300 59.274 C 277.359 59.396,277.870 59.432,279.795 60.320 M324.400 61.990 L 324.400 64.780 317.900 64.890 L 311.400 65.000 311.296 82.700 L 311.192 100.400 308.000 100.400 L 304.808 100.400 304.704 82.700 L 304.600 65.000 297.900 64.890 L 291.200 64.781 291.200 61.990 L 291.200 59.200 307.800 59.200 L 324.400 59.200 324.400 61.990 M135.800 64.535 C 128.065 67.098,124.493 75.741,127.012 85.800 C 129.960 97.576,146.910 98.577,151.247 87.232 C 156.142 74.424,146.907 60.855,135.800 64.535 M222.087 64.564 C 210.160 68.456,209.708 90.554,221.474 94.563 C 232.118 98.190,240.690 89.158,238.809 76.296 C 237.506 67.386,229.867 62.026,222.087 64.564 M259.600 70.782 L 259.600 77.260 267.500 77.130 C 277.995 76.957,279.380 76.239,279.393 70.958 C 279.407 65.719,277.466 64.695,267.100 64.468 L 259.600 64.304 259.600 70.782 M11.000 74.421 C 7.480 77.927,4.730 80.796,4.888 80.798 C 5.211 80.800,17.600 68.528,17.600 68.205 C 17.600 67.851,17.537 67.910,11.000 74.421 M377.200 126.200 C 377.200 126.530,377.380 126.800,377.600 126.800 C 377.820 126.800,378.000 126.530,378.000 126.200 C 378.000 125.870,377.820 125.600,377.600 125.600 C 377.380 125.600,377.200 125.870,377.200 126.200 M36.567 131.900 C 42.471 160.086,39.961 181.524,26.182 220.600 C 18.898 241.255,16.000 255.784,16.000 271.638 C 16.000 311.722,43.701 346.895,83.374 357.184 C 94.320 360.023,98.650 360.420,122.800 360.798 C 161.128 361.397,169.638 363.759,195.107 380.861 L 200.414 384.424 206.507 379.883 C 222.850 367.704,233.086 363.563,251.800 361.559 C 254.000 361.324,265.250 360.985,276.800 360.805 C 302.125 360.412,304.281 360.156,316.400 356.099 C 344.551 346.674,370.666 322.448,380.646 296.499 C 388.434 276.249,386.569 252.367,374.596 219.000 C 362.077 184.113,359.370 161.290,364.626 134.917 C 364.941 133.331,365.200 131.756,365.200 131.417 C 365.200 130.862,348.661 130.800,200.768 130.800 L 36.336 130.800 36.567 131.900 M372.901 155.400 C 372.905 156.280,372.987 156.593,373.083 156.095 C 373.179 155.598,373.175 154.878,373.075 154.495 C 372.975 154.113,372.896 154.520,372.901 155.400 M28.440 158.100 C 28.416 160.193,28.561 161.600,28.800 161.600 C 29.271 161.600,29.271 157.069,28.800 155.600 C 28.583 154.924,28.467 155.733,28.440 158.100 M372.928 163.200 C 372.928 164.630,373.001 165.215,373.089 164.500 C 373.178 163.785,373.178 162.615,373.089 161.900 C 373.001 161.185,372.928 161.770,372.928 163.200 M171.400 162.778 C 203.171 170.077,219.532 199.679,206.367 226.044 C 203.183 232.422,196.190 240.117,191.160 242.780 C 189.752 243.525,186.980 245.220,185.000 246.545 C 183.020 247.871,178.557 250.455,175.082 252.286 C 158.156 261.209,150.348 267.723,142.580 279.400 C 139.509 284.016,135.600 291.186,135.600 292.204 C 135.600 292.728,140.145 292.800,173.200 292.800 L 210.800 292.800 210.800 305.201 L 210.800 317.603 158.500 317.501 L 106.200 317.400 106.316 313.800 C 107.445 278.696,126.752 250.625,163.800 230.216 C 180.451 221.043,182.356 219.599,184.865 214.247 C 191.410 200.287,178.138 186.400,158.252 186.400 C 143.384 186.400,134.287 192.608,131.063 204.953 C 130.729 206.232,130.366 207.367,130.257 207.476 C 130.040 207.693,108.333 202.970,106.937 202.402 C 105.933 201.993,106.032 201.234,107.797 195.840 C 113.878 177.253,129.242 164.819,149.600 162.008 C 154.200 161.373,167.296 161.835,171.400 162.778 M279.901 240.906 L 280.002 317.612 267.701 317.506 L 255.400 317.400 255.299 255.309 L 255.197 193.219 248.299 193.109 L 241.400 193.000 241.293 183.509 L 241.186 174.019 242.093 173.835 C 242.592 173.734,244.260 173.554,245.800 173.436 C 250.127 173.103,254.336 170.862,257.865 167.013 L 260.600 164.029 270.200 164.115 L 279.800 164.200 279.901 240.906 M27.600 172.200 C 27.600 172.750,27.669 173.200,27.753 173.200 C 27.838 173.200,27.993 172.750,28.098 172.200 C 28.203 171.650,28.134 171.200,27.945 171.200 C 27.755 171.200,27.600 171.650,27.600 172.200 M21.442 199.835 C 21.083 200.770,21.146 201.200,21.643 201.200 C 21.886 201.200,21.986 200.942,21.865 200.626 C 21.744 200.310,21.851 199.983,22.103 199.899 C 22.430 199.790,22.436 199.669,22.122 199.476 C 21.881 199.327,21.575 199.488,21.442 199.835 M384.406 215.414 C 384.417 216.103,385.148 216.985,385.454 216.679 C 385.618 216.515,385.448 216.077,385.076 215.705 C 384.704 215.333,384.403 215.202,384.406 215.414 M7.200 246.176 C 7.200 246.493,7.380 246.864,7.600 247.000 C 7.820 247.136,8.000 246.877,8.000 246.424 C 8.000 245.971,7.820 245.600,7.600 245.600 C 7.380 245.600,7.200 245.859,7.200 246.176 M395.693 262.800 C 395.693 263.570,395.775 263.885,395.876 263.500 C 395.976 263.115,395.976 262.485,395.876 262.100 C 395.775 261.715,395.693 262.030,395.693 262.800 M5.239 265.000 C 5.252 266.396,5.307 266.490,5.670 265.741 C 5.960 265.141,5.956 264.658,5.655 264.141 C 5.297 263.525,5.227 263.669,5.239 265.000 M5.200 277.776 C 5.200 278.339,5.380 278.800,5.600 278.800 C 5.820 278.800,6.000 278.451,6.000 278.024 C 6.000 277.597,5.820 277.136,5.600 277.000 C 5.373 276.860,5.200 277.196,5.200 277.776 M6.000 286.800 C 6.000 287.547,6.107 287.653,6.480 287.280 C 6.853 286.907,6.853 286.693,6.480 286.320 C 6.107 285.947,6.000 286.053,6.000 286.800 M13.200 310.981 C 13.200 311.500,14.176 313.200,14.473 313.200 C 14.663 313.200,14.544 312.781,14.208 312.268 C 13.872 311.756,13.718 311.216,13.865 311.068 C 14.013 310.921,13.923 310.800,13.667 310.800 C 13.410 310.800,13.200 310.882,13.200 310.981 M369.311 333.300 C 368.341 334.555,368.280 334.892,369.105 334.451 C 369.943 334.002,370.621 332.800,370.036 332.800 C 369.850 332.800,369.524 333.025,369.311 333.300 M362.461 340.347 C 361.586 341.106,361.358 341.610,361.900 341.587 C 362.203 341.575,363.772 339.600,363.480 339.600 C 363.393 339.600,362.935 339.936,362.461 340.347 M36.687 344.022 C 37.395 344.757,38.075 345.258,38.198 345.135 C 38.321 345.012,37.742 344.411,36.911 343.798 L 35.400 342.685 36.687 344.022 M42.892 349.275 C 43.091 349.873,44.000 350.202,44.000 349.676 C 44.000 349.461,43.715 349.176,43.367 349.043 C 42.977 348.893,42.794 348.982,42.892 349.275 M102.300 371.089 C 103.015 371.178,104.185 371.178,104.900 371.089 C 105.615 371.001,105.030 370.928,103.600 370.928 C 102.170 370.928,101.585 371.001,102.300 371.089 M131.700 371.491 C 132.525 371.578,133.875 371.578,134.700 371.491 C 135.525 371.405,134.850 371.334,133.200 371.334 C 131.550 371.334,130.875 371.405,131.700 371.491 M266.313 371.495 C 267.476 371.576,269.276 371.576,270.313 371.493 C 271.351 371.411,270.400 371.345,268.200 371.346 C 266.000 371.347,265.151 371.414,266.313 371.495 M143.200 372.000 C 143.200 372.220,143.470 372.400,143.800 372.400 C 144.130 372.400,144.400 372.220,144.400 372.000 C 144.400 371.780,144.130 371.600,143.800 371.600 C 143.470 371.600,143.200 371.780,143.200 372.000 M255.000 372.000 C 254.856 372.233,255.263 372.400,255.976 372.400 C 256.649 372.400,257.200 372.220,257.200 372.000 C 257.200 371.780,256.761 371.600,256.224 371.600 C 255.687 371.600,255.136 371.780,255.000 372.000 M146.000 372.400 C 146.000 372.620,146.360 372.800,146.800 372.800 C 147.240 372.800,147.600 372.620,147.600 372.400 C 147.600 372.180,147.240 372.000,146.800 372.000 C 146.360 372.000,146.000 372.180,146.000 372.400 M251.200 372.400 C 251.200 372.620,251.560 372.800,252.000 372.800 C 252.440 372.800,252.800 372.620,252.800 372.400 C 252.800 372.180,252.440 372.000,252.000 372.000 C 251.560 372.000,251.200 372.180,251.200 372.400 M174.800 381.136 C 174.800 381.528,176.818 382.515,177.082 382.251 C 177.180 382.153,176.887 381.954,176.430 381.810 C 175.974 381.665,175.600 381.378,175.600 381.173 C 175.600 380.968,175.420 380.800,175.200 380.800 C 174.980 380.800,174.800 380.951,174.800 381.136 M182.624 385.787 C 183.051 386.110,183.580 386.375,183.800 386.375 C 184.020 386.375,183.851 386.110,183.424 385.787 C 182.996 385.464,182.467 385.200,182.247 385.200 C 182.027 385.200,182.196 385.464,182.624 385.787 M197.675 396.025 C 197.771 396.314,198.086 396.629,198.375 396.725 C 198.675 396.825,198.825 396.675,198.725 396.375 C 198.629 396.086,198.314 395.771,198.025 395.675 C 197.725 395.575,197.575 395.725,197.675 396.025 " stroke="none" fill="#fbfbfb" fill-rule="evenodd"></path></g></svg>